[Header]
FileType HTR
DataType HTRS
FileVersion 1
NumSegments 22
NumFrames 8
DataFrameRate 24
EulerRotationOrder ZYX
CalibrationUnits mm
RotationUnits Degrees
GlobalAxisofGravity Y
BoneLengthAxis Y
ScaleFactor 1.0
[SegmentNames&Hierarchy]
reference	GLOBAL
Hips	reference
Spine	Hips
Spine1	Spine
Neck	Spine1
Head	Neck
LeftShoulder	Spine1
LeftArm	LeftShoulder
LeftForeArm	LeftArm
LeftHand	LeftForeArm
RightShoulder	Spine1
RightArm	RightShoulder
RightForeArm	RightArm
RightHand	RightForeArm
LeftUpLeg	Hips
LeftLeg	LeftUpLeg
LeftFoot	LeftLeg
LeftToeBase	LeftFoot
RightUpLeg	Hips
RightLeg	RightUpLeg
RightFoot	RightLeg
RightToeBase	RightFoot
[BasePosition]
reference	0	0	0	0	0	0	1
Hips	0	0	0	0	0	0	1
Spine	0	0	0	0	-0	90	1
Spine1	0	0	0	0	0	0	1
Neck	0	0	0	-7.352430803	-7.352430803	90	1
Head	0	0	0	0	-0	90	1
LeftShoulder	0	0	0	0	0	0	1
LeftArm	0	0	0	0	0	0	1
LeftForeArm	0	0	0	0	0	0	1
LeftHand	0	0	0	0	0	0	1
RightShoulder	0	0	0	0	-0	180	1
RightArm	0	0	0	0	-0	180	1
RightForeArm	0	0	0	0	-0	180	1
RightHand	0	0	0	0	-0	180	1
LeftUpLeg	0	0	0	0	-0	-90	1
LeftLeg	0	0	0	0	-0	-90	1
LeftFoot	0	0	0	66.57150701	-66.57150701	-90	1
LeftToeBase	0	0	0	0	-90	0	1
RightUpLeg	0	0	0	0	-0	-90	1
RightLeg	0	0	0	0	-0	-90	1
RightFoot	0	0	0	66.57150701	-66.57150701	-90	1
RightToeBase	0	0	0	0	-90	0	1
[reference]
28	0	0	0	0	-0	0	1.0
29	0	0	0	0	-0	0	1.0
30	0	0	0	0	-0	0	1.0
31	0	0	0	0	-0	0	1.0
32	0	0	0	0	-0	0	1.0
33	0	0	0	0	-0	0	1.0
34	0	0	0	0	-0	0	1.0
35	0	0	0	0	-0	0	1.0
[Hips]
28	2.486250162	7.722253799	1.026497483	6.335098267	-97.6947937	10.34391785	1.0
29	2.50385952	7.420002937	1.031092167	7.554656982	-97.57415009	10.11314774	1.0
30	2.500395775	7.30344677	1.035708785	6.107217789	-97.08327484	10.7006588	1.0
31	2.355220079	7.498889923	1.040351629	5.489303589	-96.6920929	10.09872437	1.0
32	2.124242306	8.079837799	1.045024633	7.423024178	-97.40438843	4.922683716	1.0
33	1.908246398	8.966511726	1.049732208	5.062773228	-97.92727661	4.145051956	1.0
34	1.832082748	9.948159218	1.05447793	7.357658386	-96.02976227	0.95151335	1.0
35	1.928503036	10.7195797	1.05926609	11.11130142	-94.09978485	-1.618272066	1.0
[Spine]
28	0	0.7478299737	0	0.2307808697	1.566909194	-89.55755615	1.0
29	0	0.7478299737	0	-0.3644942343	1.449265718	-90.18366241	1.0
30	0	0.7478299737	0	-0.281853348	1.053030968	-90.15376282	1.0
31	0	0.7478299737	0	-1.416455626	1.027565598	-89.59750366	1.0
32	0	0.7478299737	0	-2.686086655	2.019080162	-89.19232941	1.0
33	0	0.7478299737	0	-3.936816216	2.543402672	-88.57001495	1.0
34	0	0.7478299737	0	-3.946565628	1.351141334	-89.26282501	1.0
35	0	0.7478299737	0	0.3571841717	1.028249979	-88.96893311	1.0
[Spine1]
28	0	2.049309969	0	-6.030310154	0.4717628956	-0.9741519094	1.0
29	0	2.049309969	0	-4.419511795	0.4589119256	-0.6328853965	1.0
30	0	2.049309969	0	-3.826075315	0.3546591401	-0.2820146978	1.0
31	0	2.049309969	0	-4.704984665	0.33115834	-0.7867480516	1.0
32	0	2.049309969	0	-3.757030487	0.588024199	-0.6060070395	1.0
33	0	2.049309969	0	-0.6325569153	0.8264415264	-0.9915937185	1.0
34	0	2.049309969	0	-2.251498222	0.4488357902	1.043226361	1.0
35	0	2.049309969	0	-7.287624836	0.8359435201	0.7217248678	1.0
[Neck]
28	0	2.231709957	0	-14.78281689	9.426317215	-85.38269806	1.0
29	0	2.231709957	0	-18.50619888	9.857403755	-84.86536407	1.0
30	0	2.231709957	0	-18.8155365	10.11003017	-84.72177124	1.0
31	0	2.231709957	0	-12.84691429	9.747336388	-85.12284088	1.0
32	0	2.231709957	0	-5.31730175	9.323332787	-85.98730469	1.0
33	0	2.231709957	0	2.762703657	9.240005493	-85.5295105	1.0
34	0	2.231709957	0	14.88798523	8.575850487	-86.6046524	1.0
35	0	2.231709957	0	19.58231354	8.658630371	-85.80261993	1.0
[Head]
28	0	1.413589954	0.1823999882	-9.645534515	1.9201684	-92.11386871	1.0
29	0	1.413589954	0.1823999882	-8.8381567	2.198803663	-92.28405762	1.0
30	0	1.413589954	0.1823999882	-8.619309425	2.451237917	-92.54299927	1.0
31	0	1.413589954	0.1823999882	-8.436867714	2.343144178	-92.07043457	1.0
32	0	1.413589954	0.1823999882	-9.484676361	2.148511171	-91.7011795	1.0
33	0	1.413589954	0.1823999882	-8.406541824	2.542541265	-94.35404205	1.0
34	0	1.413589954	0.1823999882	-8.973406792	1.758758426	-94.91047668	1.0
35	0	1.413589954	0.1823999882	-7.519078255	0.1417093724	-96.56773376	1.0
[LeftShoulder]
28	0.3649300039	1.825889945	-0.04271000251	-13.20301056	-7.461602688	4.801263809	1.0
29	0.3649300039	1.825889945	-0.04271000251	-15.25143719	-7.649356365	5.844883442	1.0
30	0.3649300039	1.825889945	-0.04271000251	-15.63344765	-8.13549614	6.739575386	1.0
31	0.3649300039	1.825889945	-0.04271000251	-15.11213207	-7.892010212	8.044674873	1.0
32	0.3649300039	1.825889945	-0.04271000251	-14.22205925	-7.571178913	9.646055222	1.0
33	0.3649300039	1.825889945	-0.04271000251	-12.74648285	-8.406860352	9.572690964	1.0
34	0.3649300039	1.825889945	-0.04271000251	-9.885972023	-9.762628555	5.919165611	1.0
35	0.3649300039	1.825889945	-0.04271000251	-9.994819641	-10.72281075	1.752173543	1.0
[LeftArm]
28	1.24003005	0	0	31.3860817	8.244951248	-76.22970581	1.0
29	1.24003005	0	0	34.19192886	5.056357384	-75.96815491	1.0
30	1.24003005	0	0	30.74066544	2.619709253	-72.55728149	1.0
31	1.24003005	0	0	30.60651588	-0.1746390313	-67.84151459	1.0
32	1.24003005	0	0	29.03588867	-4.235210419	-62.66919708	1.0
33	1.24003005	0	0	32.1230011	-7.237397671	-57.4768219	1.0
34	1.24003005	0	0	34.54073334	-7.550346375	-55.14706421	1.0
35	1.24003005	0	0	42.26332474	-6.709286213	-56.21070862	1.0
[LeftForeArm]
28	2.847419977	0	0	-17.88158798	-48.81893921	10.52410698	1.0
29	2.847419977	0	0	-22.40812302	-48.34634018	14.78904819	1.0
30	2.847419977	0	0	-25.50275803	-59.92214203	18.95319176	1.0
31	2.847419977	0	0	-56.85667801	-73.266716	54.02460861	1.0
32	2.847419977	0	0	-115.9861221	-70.71722412	118.3586578	1.0
33	2.847419977	0	0	-123.9872208	-55.82236481	136.137207	1.0
34	2.847419977	0	0	-136.259491	-49.15504456	150.3803711	1.0
35	2.847419977	0	0	-143.2623291	-48.59536743	156.4422607	1.0
[LeftHand]
28	2.258270025	0	0	-13.53653431	-14.13766289	3.555212021	1.0
29	2.258270025	0	0	-16.50515366	-14.24085617	6.110926628	1.0
30	2.258270025	0	0	-15.42916584	-13.58189297	7.656476974	1.0
31	2.258270025	0	0	-16.06561661	-12.00668907	6.92362833	1.0
32	2.258270025	0	0	-16.74588203	-10.51170158	6.892485619	1.0
33	2.258270025	0	0	-19.06931496	-12.43593121	5.626676083	1.0
34	2.258270025	0	0	-17.326334	-13.14135933	8.743058205	1.0
35	2.258270025	0	0	-13.67069721	-18.59547615	4.931173801	1.0
[RightShoulder]
28	-0.3646599948	1.825889945	-0.04271000251	-10.70948982	8.347865105	178.411087	1.0
29	-0.3646599948	1.825889945	-0.04271000251	-13.1136837	8.444289207	178.0907898	1.0
30	-0.3646599948	1.825889945	-0.04271000251	-13.59887123	8.354345322	177.6232147	1.0
31	-0.3646599948	1.825889945	-0.04271000251	-13.72728062	8.97232151	176.7177887	1.0
32	-0.3646599948	1.825889945	-0.04271000251	-13.81849861	10.29390812	173.8638916	1.0
33	-0.3646599948	1.825889945	-0.04271000251	-11.94922733	12.29754543	173.5261383	1.0
34	-0.3646599948	1.825889945	-0.04271000251	-9.227054596	14.81117439	177.1857147	1.0
35	-0.3646599948	1.825889945	-0.04271000251	-7.694142818	13.63058472	181.2008362	1.0
[RightArm]
28	-1.24003005	0	0	47.26860428	-5.422389507	-99.91176605	1.0
29	-1.24003005	0	0	50.41482544	-2.093391418	-98.57913208	1.0
30	-1.24003005	0	0	49.94447327	0.5060274005	-98.7982254	1.0
31	-1.24003005	0	0	48.21484375	0.2106752694	-100.8802338	1.0
32	-1.24003005	0	0	45.28070831	0.155756101	-103.3641815	1.0
33	-1.24003005	0	0	46.11425781	0.6472093463	-108.0766144	1.0
34	-1.24003005	0	0	47.86782837	-1.909464478	-113.0342789	1.0
35	-1.24003005	0	0	51.7400322	-2.398602724	-112.9880829	1.0
[RightForeArm]
28	-2.847419977	0	0	-10.96737576	38.02880859	157.3097534	1.0
29	-2.847419977	0	0	-12.91876793	33.72031403	152.7514496	1.0
30	-2.847419977	0	0	-20.11009598	38.57686615	141.9315796	1.0
31	-2.847419977	0	0	-38.43658829	48.74766922	117.3797302	1.0
32	-2.847419977	0	0	-67.0887146	53.07304764	81.29547882	1.0
33	-2.847419977	0	0	-86.73226929	45.98152542	52.06867218	1.0
34	-2.847419977	0	0	-100.6534729	39.47307587	34.55019379	1.0
35	-2.847419977	0	0	-105.8224487	41.65527725	32.01827621	1.0
[RightHand]
28	-2.258270025	0	0	-3.990128279	13.69560146	172.3425293	1.0
29	-2.258270025	0	0	-5.704738617	12.0901022	168.8411865	1.0
30	-2.258270025	0	0	-7.463389874	10.22402096	166.4475403	1.0
31	-2.258270025	0	0	-8.600821495	9.844717979	167.5496216	1.0
32	-2.258270025	0	0	-7.192155838	6.898752213	168.0385132	1.0
33	-2.258270025	0	0	-5.532099724	6.055618763	165.8981323	1.0
34	-2.258270025	0	0	-3.55636549	6.920097351	164.0443573	1.0
35	-2.258270025	0	0	-1.274048328	9.167316437	163.7932129	1.0
[LeftUpLeg]
28	0.9119900465	0	0	-43.60931778	7.856310368	92.11201477	1.0
29	0.9119900465	0	0	-49.14968109	8.681777954	91.70113373	1.0
30	0.9119900465	0	0	-48.67290878	6.110133648	92.32508087	1.0
31	0.9119900465	0	0	-43.08128738	4.558264732	90.09247589	1.0
32	0.9119900465	0	0	-30.83630943	1.736369252	90.80008698	1.0
33	0.9119900465	0	0	-16.55635262	-0.8271101117	91.74845123	1.0
34	0.9119900465	0	0	-13.94718647	-4.973176003	92.83938599	1.0
35	0.9119900465	0	0	-27.3000164	-7.994951725	98.00642395	1.0
[LeftLeg]
28	0	-4.371409893	0	66.91314697	0.5682787895	70.84728241	1.0
29	0	-4.371409893	0	75.5385437	2.694386721	69.05601501	1.0
30	0	-4.371409893	0	76.82193756	4.976639748	69.9473877	1.0
31	0	-4.371409893	0	70.4681015	2.290063858	77.40110779	1.0
32	0	-4.371409893	0	53.603302	1.149283648	80.5070343	1.0
33	0	-4.371409893	0	29.8529892	2.589345932	84.24404907	1.0
34	0	-4.371409893	0	22.53702736	3.667634964	87.37748718	1.0
35	0	-4.371409893	0	47.44397354	6.974774837	80.16828156	1.0
[LeftFoot]
28	0	-3.918009996	0	-79.96028137	108.056633	-13.81186104	1.0
29	0	-3.918009996	0	-76.22458649	107.6736069	-9.094863892	1.0
30	0	-3.918009996	0	-74.7702713	109.4907837	-4.270048141	1.0
31	0	-3.918009996	0	-81.15740967	108.245491	-9.804929733	1.0
32	0	-3.918009996	0	-81.96076965	109.3429184	-17.31044769	1.0
33	0	-3.918009996	0	-79.71277618	112.0108414	-39.89511108	1.0
34	0	-3.918009996	0	-67.4291153	106.2555618	-57.59645081	1.0
35	0	-3.918009996	0	-53.7466507	108.524437	-40.10799408	1.0
[LeftToeBase]
28	0	-0.5927900076	1.367989898	0	0	0	1.0
29	0	-0.5927900076	1.367989898	0	0	0	1.0
30	0	-0.5927900076	1.367989898	0	0	0	1.0
31	0	-0.5927900076	1.367989898	0	0	0	1.0
32	0	-0.5927900076	1.367989898	0	0	0	1.0
33	0	-0.5927900076	1.367989898	0	0	0	1.0
34	0	-0.5927900076	1.367989898	0	0	0	1.0
35	0	-0.5927900076	1.367989898	0	0	0	1.0
[RightUpLeg]
28	-0.9119900465	0	0	-44.69726563	-11.65818405	107.7181702	1.0
29	-0.9119900465	0	0	-49.96017456	-9.581506729	108.6438141	1.0
30	-0.9119900465	0	0	-49.63402557	-7.800439835	107.8796539	1.0
31	-0.9119900465	0	0	-43.56448746	-6.747504234	106.7923508	1.0
32	-0.9119900465	0	0	-32.19900513	-6.229152679	102.7196503	1.0
33	-0.9119900465	0	0	-17.92725372	-11.2845602	97.70522308	1.0
34	-0.9119900465	0	0	-9.60904789	-14.94882202	94.00080872	1.0
35	-0.9119900465	0	0	-19.8702774	-12.13209438	94.3621521	1.0
[RightLeg]
28	0	-4.371409893	0	63.46451569	13.6224041	79.3072052	1.0
29	0	-4.371409893	0	72.62435913	16.10400009	79.64308167	1.0
30	0	-4.371409893	0	76.16429901	15.98523426	80.50310516	1.0
31	0	-4.371409893	0	68.56941223	14.50780106	76.52684021	1.0
32	0	-4.371409893	0	54.06924057	11.10684013	78.2844162	1.0
33	0	-4.371409893	0	30.70611954	4.751469135	82.23157501	1.0
34	0	-4.371409893	0	12.26426697	1.600891471	85.39224243	1.0
35	0	-4.371409893	0	36.59941101	1.874698758	82.97402954	1.0
[RightFoot]
28	0	-3.918009996	0	37.79335403	58.34177399	98.37303162	1.0
29	0	-3.918009996	0	38.19935989	57.21316528	99.77929688	1.0
30	0	-3.918009996	0	32.79794312	56.07395172	95.15783691	1.0
31	0	-3.918009996	0	33.72119522	56.40943909	96.22464752	1.0
32	0	-3.918009996	0	37.13513947	57.71809769	92.38667297	1.0
33	0	-3.918009996	0	62.08064651	64.01681519	97.2383194	1.0
34	0	-3.918009996	0	99.77675629	63.08899307	105.0300903	1.0
35	0	-3.918009996	0	84.93756104	64.01507568	93.03983307	1.0
[RightToeBase]
28	0	-0.5927900076	1.367989898	0	0	0	1.0
29	0	-0.5927900076	1.367989898	0	0	0	1.0
30	0	-0.5927900076	1.367989898	0	0	0	1.0
31	0	-0.5927900076	1.367989898	0	0	0	1.0
32	0	-0.5927900076	1.367989898	0	0	0	1.0
33	0	-0.5927900076	1.367989898	0	0	0	1.0
34	0	-0.5927900076	1.367989898	0	0	0	1.0
35	0	-0.5927900076	1.367989898	0	0	0	1.0
[EndOfFile]
